<svg xmlns="http://www.w3.org/2000/svg" id="avatar" x="0" y="0" version="1.1" viewBox="0 0 500 500" xml:space="preserve"><switch><g><linearGradient id="XMLID_2_" x1="199.756" x2="349.332" y1="39.194" y2="205.391" gradientUnits="userSpaceOnUse"><stop offset="0"></stop><stop offset="1" stop-color="#191919"></stop></linearGradient><path id="XMLID_283_" fill="url(#XMLID_2_)" d="M250 28.6c0-18.4 17.1-32.1 35-27.9 63 15 80.2 72.5 78.5 136.6-1.1 41.3 1.9 78 4.8 102.5 2 16.9-11.1 31.8-28.2 31.9l-61.4.5c-15.9.1-28.8-12.7-28.8-28.6v-215z"></path><g id="XMLID_161_"><g id="XMLID_167_"><linearGradient id="XMLID_3_" x1="135.6" x2="293.415" y1="75.004" y2="250.354" gradientUnits="userSpaceOnUse"><stop offset="0"></stop><stop offset="1" stop-color="#191919"></stop></linearGradient><path id="XMLID_284_" fill="url(#XMLID_3_)" d="M250 29c0-18.4-17.1-32.1-35-27.9-63 15-80.2 72.5-78.5 136.6 1.1 41.3-1.9 78-4.8 102.5-2 16.9 11.1 31.8 28.2 31.9l61.4.5c15.9.1 28.8-12.7 28.8-28.6V29z"></path><linearGradient id="XMLID_4_" x1="546.655" x2="523.988" y1="185.64" y2="178.974" gradientTransform="scale(-1 1) rotate(-7.291 182.623 5601.537)" gradientUnits="userSpaceOnUse"><stop offset=".263" stop-color="#FFB268"></stop><stop offset=".89" stop-color="#FFBD82"></stop></linearGradient><path id="XMLID_791_" fill="url(#XMLID_4_)" d="M172.9 162.6s-4.2-11.6-12.1-12.6c-6.7-.9-15 7.6-13.5 19.2s4.8 31.1 4.8 31.1 3.2 13.7 14.7 9.9c11.3-3.8 6.1-47.6 6.1-47.6z"></path><linearGradient id="XMLID_5_" x1="359.655" x2="336.988" y1="185.64" y2="178.974" gradientTransform="rotate(-6.407 338.62 208.64)" gradientUnits="userSpaceOnUse"><stop offset=".263" stop-color="#FFB268"></stop><stop offset=".89" stop-color="#FFBD82"></stop></linearGradient><path id="XMLID_759_" fill="url(#XMLID_5_)" d="M328 162.3s4.4-11.5 12.3-12.4c6.8-.8 14.9 7.8 13.2 19.4-1.7 11.6-5.2 31-5.2 31s-3.4 13.7-14.9 9.6c-11.4-3.9-5.4-47.6-5.4-47.6z"></path><g id="XMLID_272_"><g id="XMLID_276_"><linearGradient id="XMLID_6_" x1="250" x2="250" y1="376.067" y2="524.743" gradientUnits="userSpaceOnUse"><stop offset=".215" stop-color="#F9B701"></stop><stop offset=".852" stop-color="#F9DD01"></stop></linearGradient><linearGradient id="XMLID_7_" x1="52.5" x2="447.5" y1="410.248" y2="410.248" gradientUnits="userSpaceOnUse"><stop offset=".064" stop-color="#F9B701"></stop><stop offset=".852" stop-color="#F9DD01"></stop></linearGradient><path id="XMLID_282_" fill="url(#XMLID_6_)" stroke="url(#XMLID_7_)" stroke-miterlimit="10" d="M390.3 356c-41.6-7.7-70.9-22.8-95.1-55.5h-90.5c-24.2 32.7-53.4 47.8-95.1 55.5-50 9.3-56.6 69.1-56.6 85.8V520h394v-78.2c0-16.7-6.6-76.5-56.7-85.8z"></path><linearGradient id="XMLID_8_" x1="296.473" x2="218.797" y1="305.048" y2="305.048" gradientUnits="userSpaceOnUse"><stop offset=".263" stop-color="#FFB268"></stop><stop offset=".89" stop-color="#FFBD82"></stop></linearGradient><path id="XMLID_281_" fill="url(#XMLID_8_)" d="M250.8 251.5h-51.1v97.1c0 9.8 16.2 10 51.1 10 34.9 0 51.1-.1 51.1-10v-97.1h-51.1z"></path><linearGradient id="XMLID_9_" x1="225.71" x2="311.143" y1="99.467" y2="284.09" gradientUnits="userSpaceOnUse"><stop offset=".263" stop-color="#FFB268"></stop><stop offset=".89" stop-color="#FFBD82"></stop></linearGradient><path id="XMLID_280_" fill="url(#XMLID_9_)" d="M336.5 162.2c-.3-65.9-12.2-118.8-86.5-118.8s-86.2 52.9-86.5 118.8c-.9-4.1 2.4 29.7 2.7 28.6 11.7 55.8 58.9 96 83.8 96s72.1-40.1 83.8-95.9c.3-.7 3.6-32.8 2.7-28.7z"></path></g><linearGradient id="XMLID_10_" x1="250" x2="250" y1="251.733" y2="234.349" gradientUnits="userSpaceOnUse"><stop offset=".123" stop-color="#BB0020"></stop><stop offset=".852" stop-color="#640520"></stop></linearGradient><path id="XMLID_275_" fill="url(#XMLID_10_)" d="M256.9 229.3c-3.8 0-4.2 2.4-6.9 2.4s-3.1-2.5-6.9-2.4c-5.6 0-21 7.6-21 7.6s1.6.8 5.2 2.2c8.5 3.3 9.4 8.8 22.7 8.8 13.3 0 14.2-5.5 22.7-8.8 3.6-1.4 5.2-2.2 5.2-2.2s-15.4-7.6-21-7.6z"></path><linearGradient id="XMLID_11_" x1="338.742" x2="336.523" y1="199.98" y2="205.237" gradientUnits="userSpaceOnUse"><stop offset=".064" stop-color="#F9B701"></stop><stop offset=".291" stop-color="#F9B901"></stop><stop offset=".852" stop-color="#F9DD01"></stop></linearGradient><circle id="XMLID_274_" cx="337.4" cy="203.3" r="4.6" fill="url(#XMLID_11_)"></circle><linearGradient id="XMLID_12_" x1="164.973" x2="162.753" y1="201.272" y2="206.528" gradientUnits="userSpaceOnUse"><stop offset=".064" stop-color="#F9B701"></stop><stop offset=".291" stop-color="#F9B901"></stop><stop offset=".852" stop-color="#F9DD01"></stop></linearGradient><circle id="XMLID_273_" cx="163.6" cy="204.6" r="4.6" fill="url(#XMLID_12_)"></circle></g><g id="XMLID_172_"><linearGradient id="XMLID_13_" x1="231.036" x2="236.311" y1="494.315" y2="366.161" gradientUnits="userSpaceOnUse"><stop offset=".123" stop-color="#7212DE"></stop><stop offset=".852" stop-color="#450078"></stop></linearGradient><circle id="XMLID_260_" cx="234.4" cy="412.9" r="5.4" fill="url(#XMLID_13_)"></circle><linearGradient id="XMLID_14_" x1="232.363" x2="237.638" y1="494.369" y2="366.216" gradientUnits="userSpaceOnUse"><stop offset=".123" stop-color="#7212DE"></stop><stop offset=".852" stop-color="#450078"></stop></linearGradient><circle id="XMLID_220_" cx="234.4" cy="445.2" r="5.4" fill="url(#XMLID_14_)"></circle><linearGradient id="XMLID_15_" x1="233.691" x2="238.966" y1="494.424" y2="366.271" gradientUnits="userSpaceOnUse"><stop offset=".123" stop-color="#7212DE"></stop><stop offset=".852" stop-color="#450078"></stop></linearGradient><circle id="XMLID_210_" cx="234.4" cy="477.5" r="5.4" fill="url(#XMLID_15_)"></circle></g><linearGradient id="XMLID_16_" x1="183.979" x2="353.857" y1="33.553" y2="222.307" gradientUnits="userSpaceOnUse"><stop offset="0"></stop><stop offset="1" stop-color="#191919"></stop></linearGradient><path id="XMLID_171_" fill="url(#XMLID_16_)" d="M340.1 57C330.9 18.5 298.6-2.7 250-2.7c-48.6 0-80.9 21.2-90.1 59.7-13.4 55.7 5.2 116.5 7 121.5 0 0-5.1-26.7 5.2-49.6-2.1 14.4-1.6 25.2-1.6 25.2s45-12 79.5-33.8c15-9.5 27.9-20.8 34.4-33.8 2.1-4.3 7.5-5.8 11.5-3.2 10.9 7 20.4 17.5 28.9 32.8 14.3 25.8 6.3 64.3 6.3 64.3 1.7-5 22.4-67.7 9-123.4z"></path></g><g id="XMLID_163_"><linearGradient id="XMLID_17_" x1="272.751" x2="297.616" y1="344.33" y2="364.591" gradientUnits="userSpaceOnUse"><stop offset=".064" stop-color="#F9B701"></stop><stop offset=".291" stop-color="#F9B901"></stop><stop offset="1" stop-color="#F9DD01"></stop></linearGradient><path id="XMLID_166_" fill="url(#XMLID_17_)" d="m301.1 312.1-51.8 47 13.7 32.6 57.4-61.7z"></path><linearGradient id="XMLID_18_" x1="219.97" x2="201.326" y1="341.053" y2="371.091" gradientUnits="userSpaceOnUse"><stop offset=".064" stop-color="#F9B701"></stop><stop offset=".291" stop-color="#F9B901"></stop><stop offset=".953" stop-color="#F9DD01"></stop></linearGradient><path id="XMLID_165_" fill="url(#XMLID_18_)" d="m179.2 330.5 56.9 60.8 12.3-33.3-49.7-45.5z"></path></g></g></g></switch></svg>